<svg width="50" height="50" viewBox="0 0 50 50" fill="none" xmlns="http://www.w3.org/2000/svg">
<g clip-path="url(#clip0)">
<path d="M47.0701 44.1407H2.92987C1.3118 44.1407 0.000183105 45.4524 0.000183105 47.0704V48.5353C0.000183105 49.3443 0.656042 50.0001 1.46503 50.0001H48.5348C49.3438 50.0001 49.9997 49.3443 49.9997 48.5353V47.0704C49.9998 45.4524 48.6882 44.1407 47.0701 44.1407Z" fill="#FF6868"/>
<path d="M47.0701 17.5785H2.92987C1.3118 17.5785 0.000183105 18.8901 0.000183105 20.5082V21.973C0.000183105 22.782 0.656042 23.4379 1.46503 23.4379H48.5348C49.3438 23.4379 49.9997 22.782 49.9997 21.973V20.5082C49.9998 18.89 48.6882 17.5785 47.0701 17.5785Z" fill="#FF6868"/>
<path d="M2.92987 26.3675V41.2111H47.0701V26.3675H2.92987ZM16.211 35.2541H14.7462V36.719C14.7462 37.5286 14.091 38.1838 13.2813 38.1838C12.4717 38.1838 11.8165 37.5286 11.8165 36.719V35.2541H10.3516C9.54198 35.2541 8.8868 34.5989 8.8868 33.7893C8.8868 32.9796 9.54198 32.3244 10.3516 32.3244H11.8165V30.8596C11.8165 30.0499 12.4717 29.3947 13.2813 29.3947C14.091 29.3947 14.7462 30.0499 14.7462 30.8596V32.3244H16.211C17.0207 32.3244 17.6759 32.9796 17.6759 33.7893C17.6759 34.5989 17.0207 35.2541 16.211 35.2541ZM39.6483 35.2541H33.789C32.9794 35.2541 32.3242 34.5989 32.3242 33.7893C32.3242 32.9796 32.9794 32.3244 33.789 32.3244H39.6483C40.458 32.3244 41.1132 32.9796 41.1132 33.7893C41.1132 34.5989 40.458 35.2541 39.6483 35.2541Z" fill="#FF3232"/>
<path d="M44.0427 9.05927V7.3247C44.0427 4.90146 42.0714 2.93017 39.6482 2.93017H29.3945C28.8394 2.93017 28.3331 3.24345 28.0841 3.73984L26.7366 6.43632L24.9241 1.00195C24.7367 0.43974 24.2303 0.0463808 23.6395 0.00487686C23.033 -0.043756 22.4894 0.279584 22.2248 0.810248L19.6999 5.85986H14.4763C13.8696 4.15849 12.2588 2.93017 10.3516 2.93017C7.92838 2.93017 5.95709 4.90146 5.95709 7.3247V9.05937C4.25572 9.66611 3.0274 11.2768 3.0274 13.1841V14.6489H17.6757V13.1841C17.6757 11.2768 16.4474 9.66611 14.7461 9.05937V8.78954H20.6053C21.1604 8.78954 21.6668 8.47626 21.9157 7.97988L23.2632 5.28339L25.0757 10.7178C25.2631 11.28 25.7695 11.6733 26.3603 11.7148C26.3961 11.7177 26.4304 11.7191 26.4647 11.7191C27.0169 11.7191 27.5261 11.4087 27.7751 10.9095L30.2999 5.85009H35.5235C35.3593 6.31054 35.2537 6.80868 35.2537 7.3247V9.05937C33.5523 9.66611 32.324 11.2768 32.324 13.1841V14.6489H46.9723V13.1841C46.9724 11.2768 45.7441 9.66601 44.0427 9.05927Z" fill="#FF3232"/>
</g>
<defs>
<clipPath id="clip0">
<rect width="50" height="50" fill="white"/>
</clipPath>
</defs>
</svg>