<svg width="233" height="50" viewBox="0 0 233 50" fill="none" xmlns="http://www.w3.org/2000/svg">
<g clip-path="url(#clip0)">
<path d="M47.0701 44.1407H2.92987C1.3118 44.1407 0.000183105 45.4523 0.000183105 47.0704V48.5353C0.000183105 49.3442 0.656042 50.0001 1.46503 50.0001H48.5348C49.3438 50.0001 49.9997 49.3442 49.9997 48.5353V47.0704C49.9998 45.4523 48.6882 44.1407 47.0701 44.1407Z" fill="#ff8383"/>
<path d="M47.0701 17.5785H2.92987C1.3118 17.5785 0.000183105 18.8901 0.000183105 20.5082V21.973C0.000183105 22.782 0.656042 23.4379 1.46503 23.4379H48.5348C49.3438 23.4379 49.9997 22.782 49.9997 21.973V20.5082C49.9998 18.89 48.6882 17.5785 47.0701 17.5785Z" fill="#ff8383"/>
<path d="M2.92987 26.3675V41.211H47.0701V26.3675H2.92987ZM16.211 35.2541H14.7462V36.7189C14.7462 37.5286 14.091 38.1838 13.2813 38.1838C12.4717 38.1838 11.8165 37.5286 11.8165 36.7189V35.2541H10.3516C9.54198 35.2541 8.8868 34.5989 8.8868 33.7893C8.8868 32.9796 9.54198 32.3244 10.3516 32.3244H11.8165V30.8596C11.8165 30.0499 12.4717 29.3947 13.2813 29.3947C14.091 29.3947 14.7462 30.0499 14.7462 30.8596V32.3244H16.211C17.0207 32.3244 17.6759 32.9796 17.6759 33.7893C17.6759 34.5989 17.0207 35.2541 16.211 35.2541ZM39.6483 35.2541H33.789C32.9794 35.2541 32.3242 34.5989 32.3242 33.7893C32.3242 32.9796 32.9794 32.3244 33.789 32.3244H39.6483C40.458 32.3244 41.1132 32.9796 41.1132 33.7893C41.1132 34.5989 40.458 35.2541 39.6483 35.2541Z" fill="red"/>
<path d="M44.0428 9.05928V7.32471C44.0428 4.90147 42.0715 2.93018 39.6482 2.93018H29.3945C28.8394 2.93018 28.3331 3.24346 28.0842 3.73985L26.7366 6.43633L24.9241 1.00195C24.7367 0.439748 24.2304 0.0463884 23.6395 0.00488449C23.033 -0.0437483 22.4894 0.279592 22.2248 0.810256L19.6999 5.85986H14.4764C13.8696 4.1585 12.2589 2.93018 10.3517 2.93018C7.92841 2.93018 5.95712 4.90147 5.95712 7.32471V9.05938C4.25576 9.66611 3.02744 11.2769 3.02744 13.1841V14.6489H17.6758V13.1841C17.6758 11.2769 16.4475 9.66611 14.7461 9.05938V8.78955H20.6054C21.1604 8.78955 21.6668 8.47627 21.9157 7.97988L23.2633 5.2834L25.0758 10.7178C25.2632 11.28 25.7695 11.6733 26.3603 11.7148C26.3961 11.7177 26.4305 11.7191 26.4647 11.7191C27.0169 11.7191 27.5262 11.4087 27.7751 10.9095L30.2999 5.8501H35.5235C35.3594 6.31055 35.2537 6.80869 35.2537 7.32471V9.05938C33.5523 9.66611 32.324 11.2769 32.324 13.1841V14.6489H46.9724V13.1841C46.9725 11.2768 45.7441 9.66602 44.0428 9.05928Z" fill="red"/>
</g>
<path d="M58.4377 37C58.247 37 58.0823 36.9307 57.9437 36.792C57.805 36.6533 57.7357 36.4887 57.7357 36.298V19.502C57.7357 19.3113 57.805 19.1467 57.9437 19.008C58.0823 18.8693 58.247 18.8 58.4377 18.8H66.1337C68.6297 18.8 70.5797 19.3633 71.9837 20.49C73.3877 21.5993 74.0897 23.142 74.0897 25.118C74.0897 26.2447 73.8383 27.2413 73.3357 28.108C72.833 28.9573 72.1483 29.6593 71.2817 30.214L74.4797 36.142C74.5317 36.246 74.5577 36.3413 74.5577 36.428C74.5577 36.584 74.497 36.7227 74.3757 36.844C74.2717 36.948 74.1417 37 73.9857 37H68.6557C68.3437 37 68.0923 36.9307 67.9017 36.792C67.7283 36.636 67.607 36.4713 67.5377 36.298L65.3017 31.332H64.2357V36.298C64.2357 36.4887 64.1663 36.6533 64.0277 36.792C63.889 36.9307 63.7243 37 63.5337 37H58.4377ZM66.1337 26.392C66.515 26.392 66.8097 26.2707 67.0177 26.028C67.2257 25.768 67.3297 25.4473 67.3297 25.066C67.3297 24.6847 67.2257 24.3553 67.0177 24.078C66.827 23.7833 66.5323 23.636 66.1337 23.636H64.2357V26.392H66.1337ZM82.0256 37C81.8349 37 81.6702 36.9307 81.5316 36.792C81.3929 36.6533 81.3236 36.4887 81.3236 36.298V19.502C81.3236 19.3113 81.3929 19.1467 81.5316 19.008C81.6702 18.8693 81.8349 18.8 82.0256 18.8H90.6576C93.1189 18.8 94.9302 19.2507 96.0916 20.152C97.2702 21.0533 97.8596 22.4227 97.8596 24.26C97.8596 25.0053 97.6429 25.6727 97.2096 26.262C96.7762 26.834 96.2996 27.25 95.7796 27.51C96.4729 27.7873 97.0536 28.2813 97.5216 28.992C98.0069 29.6853 98.2496 30.448 98.2496 31.28C98.2496 33.204 97.6256 34.6427 96.3776 35.596C95.1296 36.532 93.3096 37 90.9176 37H82.0256ZM90.0076 25.638C90.3542 25.638 90.6142 25.5253 90.7876 25.3C90.9782 25.0573 91.0736 24.78 91.0736 24.468C91.0736 24.156 90.9782 23.8787 90.7876 23.636C90.6142 23.3933 90.3542 23.272 90.0076 23.272H87.8236V25.638H90.0076ZM90.2416 32.528C90.6402 32.528 90.9349 32.398 91.1256 32.138C91.3336 31.878 91.4376 31.5833 91.4376 31.254C91.4376 30.9247 91.3249 30.63 91.0996 30.37C90.8916 30.11 90.6056 29.98 90.2416 29.98H87.8236V32.528H90.2416ZM99.2546 37C99.0986 37 98.96 36.948 98.8386 36.844C98.7346 36.7227 98.6826 36.584 98.6826 36.428C98.6826 36.3587 98.6913 36.298 98.7086 36.246L104.507 19.658C104.576 19.4327 104.706 19.2333 104.897 19.06C105.087 18.8867 105.347 18.8 105.677 18.8H111.319C111.648 18.8 111.908 18.8867 112.099 19.06C112.289 19.2333 112.419 19.4327 112.489 19.658L118.287 36.246C118.304 36.298 118.313 36.3587 118.313 36.428C118.313 36.584 118.252 36.7227 118.131 36.844C118.027 36.948 117.897 37 117.741 37H112.931C112.411 37 112.073 36.7833 111.917 36.35L111.293 34.634H105.703L105.079 36.35C104.923 36.7833 104.585 37 104.065 37H99.2546ZM109.967 29.564L108.485 24.728L107.029 29.564H109.967ZM122.669 37C122.478 37 122.314 36.9307 122.175 36.792C122.036 36.6533 121.967 36.4887 121.967 36.298V24.39H117.651C117.46 24.39 117.296 24.3207 117.157 24.182C117.018 24.0433 116.949 23.8787 116.949 23.688V19.502C116.949 19.3113 117.018 19.1467 117.157 19.008C117.296 18.8693 117.46 18.8 117.651 18.8H132.887C133.078 18.8 133.242 18.8693 133.381 19.008C133.52 19.1467 133.589 19.3113 133.589 19.502V23.688C133.589 23.8787 133.52 24.0433 133.381 24.182C133.242 24.3207 133.078 24.39 132.887 24.39H128.571V36.298C128.571 36.4887 128.502 36.6533 128.363 36.792C128.224 36.9307 128.06 37 127.869 37H122.669ZM140.188 37C139.998 37 139.833 36.9307 139.694 36.792C139.556 36.6533 139.486 36.4887 139.486 36.298V24.39H135.17C134.98 24.39 134.815 24.3207 134.676 24.182C134.538 24.0433 134.468 23.8787 134.468 23.688V19.502C134.468 19.3113 134.538 19.1467 134.676 19.008C134.815 18.8693 134.98 18.8 135.17 18.8H150.406C150.597 18.8 150.762 18.8693 150.9 19.008C151.039 19.1467 151.108 19.3113 151.108 19.502V23.688C151.108 23.8787 151.039 24.0433 150.9 24.182C150.762 24.3207 150.597 24.39 150.406 24.39H146.09V36.298C146.09 36.4887 146.021 36.6533 145.882 36.792C145.744 36.9307 145.579 37 145.388 37H140.188ZM153.678 37C153.487 37 153.323 36.9307 153.184 36.792C153.045 36.6533 152.976 36.4887 152.976 36.298V19.502C152.976 19.3113 153.045 19.1467 153.184 19.008C153.323 18.8693 153.487 18.8 153.678 18.8H167.016C167.207 18.8 167.371 18.8693 167.51 19.008C167.649 19.1467 167.718 19.3113 167.718 19.502V23.168C167.718 23.3587 167.649 23.5233 167.51 23.662C167.371 23.8007 167.207 23.87 167.016 23.87H159.216V25.508H166.444C166.635 25.508 166.799 25.5773 166.938 25.716C167.077 25.8547 167.146 26.0193 167.146 26.21V29.59C167.146 29.7807 167.077 29.9453 166.938 30.084C166.799 30.2227 166.635 30.292 166.444 30.292H159.216V31.93H167.224C167.415 31.93 167.579 31.9993 167.718 32.138C167.857 32.2767 167.926 32.4413 167.926 32.632V36.298C167.926 36.4887 167.857 36.6533 167.718 36.792C167.579 36.9307 167.415 37 167.224 37H153.678ZM171.02 37C170.829 37 170.664 36.9307 170.526 36.792C170.387 36.6533 170.318 36.4887 170.318 36.298V19.502C170.318 19.3113 170.387 19.1467 170.526 19.008C170.664 18.8693 170.829 18.8 171.02 18.8H178.716C181.212 18.8 183.162 19.3633 184.566 20.49C185.97 21.5993 186.672 23.142 186.672 25.118C186.672 26.2447 186.42 27.2413 185.918 28.108C185.415 28.9573 184.73 29.6593 183.864 30.214L187.062 36.142C187.114 36.246 187.14 36.3413 187.14 36.428C187.14 36.584 187.079 36.7227 186.958 36.844C186.854 36.948 186.724 37 186.568 37H181.238C180.926 37 180.674 36.9307 180.484 36.792C180.31 36.636 180.189 36.4713 180.12 36.298L177.884 31.332H176.818V36.298C176.818 36.4887 176.748 36.6533 176.61 36.792C176.471 36.9307 176.306 37 176.116 37H171.02ZM178.716 26.392C179.097 26.392 179.392 26.2707 179.6 26.028C179.808 25.768 179.912 25.4473 179.912 25.066C179.912 24.6847 179.808 24.3553 179.6 24.078C179.409 23.7833 179.114 23.636 178.716 23.636H176.818V26.392H178.716ZM189.783 37C189.593 37 189.428 36.9307 189.289 36.792C189.151 36.6533 189.081 36.4887 189.081 36.298V19.502C189.081 19.3113 189.151 19.1467 189.289 19.008C189.428 18.8693 189.593 18.8 189.783 18.8H195.087C195.278 18.8 195.443 18.8693 195.581 19.008C195.72 19.1467 195.789 19.3113 195.789 19.502V36.298C195.789 36.4887 195.72 36.6533 195.581 36.792C195.443 36.9307 195.278 37 195.087 37H189.783ZM199.356 37C199.165 37 199 36.9307 198.862 36.792C198.723 36.6533 198.654 36.4887 198.654 36.298V19.502C198.654 19.3113 198.723 19.1467 198.862 19.008C199 18.8693 199.165 18.8 199.356 18.8H212.694C212.884 18.8 213.049 18.8693 213.188 19.008C213.326 19.1467 213.396 19.3113 213.396 19.502V23.168C213.396 23.3587 213.326 23.5233 213.188 23.662C213.049 23.8007 212.884 23.87 212.694 23.87H204.894V25.508H212.122C212.312 25.508 212.477 25.5773 212.616 25.716C212.754 25.8547 212.824 26.0193 212.824 26.21V29.59C212.824 29.7807 212.754 29.9453 212.616 30.084C212.477 30.2227 212.312 30.292 212.122 30.292H204.894V31.93H212.902C213.092 31.93 213.257 31.9993 213.396 32.138C213.534 32.2767 213.604 32.4413 213.604 32.632V36.298C213.604 36.4887 213.534 36.6533 213.396 36.792C213.257 36.9307 213.092 37 212.902 37H199.356ZM223.587 37.26C221.75 37.26 220.19 37.0087 218.907 36.506C217.642 36.0033 216.689 35.336 216.047 34.504C215.406 33.6547 215.068 32.7273 215.033 31.722C215.033 31.566 215.085 31.436 215.189 31.332C215.311 31.2107 215.449 31.15 215.605 31.15H220.545C220.788 31.15 220.979 31.1847 221.117 31.254C221.273 31.306 221.455 31.4187 221.663 31.592C222.166 31.9907 222.807 32.19 223.587 32.19C224.177 32.19 224.645 32.1293 224.991 32.008C225.355 31.8693 225.537 31.6873 225.537 31.462C225.537 31.15 225.303 30.916 224.835 30.76C224.367 30.5867 223.483 30.4133 222.183 30.24C217.711 29.6507 215.475 27.744 215.475 24.52C215.475 23.3587 215.805 22.3273 216.463 21.426C217.139 20.5073 218.075 19.7967 219.271 19.294C220.467 18.7913 221.845 18.54 223.405 18.54C225.035 18.54 226.465 18.8173 227.695 19.372C228.926 19.9267 229.871 20.6287 230.529 21.478C231.188 22.31 231.535 23.1247 231.569 23.922C231.569 24.078 231.509 24.2167 231.387 24.338C231.283 24.442 231.162 24.494 231.023 24.494H225.823C225.581 24.494 225.39 24.468 225.251 24.416C225.113 24.3467 224.957 24.234 224.783 24.078C224.419 23.766 223.96 23.61 223.405 23.61C222.573 23.61 222.157 23.8527 222.157 24.338C222.157 24.598 222.357 24.8147 222.755 24.988C223.171 25.1613 223.934 25.3173 225.043 25.456C226.777 25.6813 228.163 26.0193 229.203 26.47C230.261 26.9207 231.023 27.5273 231.491 28.29C231.977 29.0353 232.219 29.98 232.219 31.124C232.219 32.3547 231.847 33.438 231.101 34.374C230.356 35.2927 229.325 36.0033 228.007 36.506C226.707 37.0087 225.234 37.26 223.587 37.26Z" fill="red"/>
<defs>
<clipPath id="clip0">
<rect width="50" height="50" fill="red"/>
</clipPath>
</defs>
</svg>
